<?xml version="1.0" standalone="no"?><!DOCTYPE svg PUBLIC "-//W3C//DTD SVG 1.1//EN" "http://www.w3.org/Graphics/SVG/1.1/DTD/svg11.dtd"><svg t="1599489960817" class="icon" viewBox="0 0 1024 1024" version="1.1" xmlns="http://www.w3.org/2000/svg" p-id="9776" xmlns:xlink="http://www.w3.org/1999/xlink" width="200" height="200"><defs><style type="text/css"></style></defs><path d="M416.896 47.146667a198.272 198.272 0 0 0-7.637333 5.12c-38.186667 27.008-65.066667 69.12-80.768 126.250666l-1.92 7.04c-1.834667 8.106667-5.290667 24.149333-7.68 35.626667L210.474667 747.178667l-5.674667 27.733333-0.597333 3.370667c-8.149333 44.288-7.552 81.536 1.877333 111.786666 10.069333 32.554667 26.154667 58.709333 48.170667 78.592 19.925333 17.962667 41.898667 34.858667 69.333333 36.608 59.221333 3.754667 164.096 3.797333 219.349333-0.682666 34.090667-2.730667 59.733333-24.234667 81.28-44.032 22.570667-20.778667 40.277333-45.141333 53.205334-73.173334s23.381333-66.176 23.381333-66.176c3.114667-11.306667 7.594667-29.994667 9.941333-41.472l101.76-493.525333c2.389333-11.477333 6.016-29.994667 8.106667-41.173333l1.322667-9.685334c9.685333-70.229333-0.341333-124.074667-30.165334-161.536a140.544 140.544 0 0 0-6.613333-7.722666c-17.578667-18.901333-47.402667-39.808-76.245333-43.392-57.173333-7.125333-178.645333-10.624-239.786667 0-19.498667 3.413333-36.352 14.421333-52.224 24.448z m163.328 116.522666c20.736 0 33.664 5.418667 38.698667 16.256 4.992 10.88 3.797333 23.466667 3.797333 23.466667-1.066667 11.690667-3.882667 30.634667-6.229333 42.154667l-113.066667 550.442666c-2.346667 11.477333-7.168 30.037333-10.709333 41.258667 0 0-3.84 12.202667-13.056 20.309333-9.216 8.149333-22.912 11.733333-41.088 10.88-24.832-0.64-38.357333-11.264-40.618667-31.829333l-0.768-7.168c1.408-9.898667 4.522667-27.349333 6.912-38.869333l114.389333-549.12c2.389333-11.477333 6.912-30.122667 10.069334-41.429334 0 0 2.901333-10.368 11.008-20.736 8.149333-10.368 21.674667-15.616 40.661333-15.616z" fill="#A6A6A6" p-id="9777"></path></svg>