<?xml version="1.0" standalone="no"?><!DOCTYPE svg PUBLIC "-//W3C//DTD SVG 1.1//EN" "http://www.w3.org/Graphics/SVG/1.1/DTD/svg11.dtd"><svg t="1599489863210" class="icon" viewBox="0 0 1024 1024" version="1.1" xmlns="http://www.w3.org/2000/svg" p-id="7453" xmlns:xlink="http://www.w3.org/1999/xlink" width="200" height="200"><defs><style type="text/css"></style></defs><path d="M568.106667 647.808l-31.914667 28.330667s-29.354667 26.24-44.202667 42.026666a419.413333 419.413333 0 0 0-34.432 40.618667 108.8 108.8 0 0 0-16.256 31.189333 102.101333 102.101333 0 0 0-4.309333 27.776h238.848c11.733333 0 18.773333 9.258667 15.658667 20.565334l-40.106667 145.834666a29.696 29.696 0 0 1-27.008 20.565334H207.744a19.2 19.2 0 0 1-19.456-21.248s4.224-48.298667 9.216-84.437334c4.949333-36.138667 12.672-71.808 23.168-107.050666a473.6 473.6 0 0 1 42.666667-100.309334 337.365333 337.365333 0 0 1 69.802666-85.376l183.936-164.650666c8.746667-7.722667 22.997333-20.608 31.616-28.544 0 0 11.861333-10.88 24.32-23.552 12.458667-12.629333 20.309333-26.197333 23.594667-40.618667l23.936-124.032 4.821333-24.96 0.170667-1.834667c0.938667-10.581333-3.242667-16.938667-12.629333-19.072a36.48 36.48 0 0 0-8.192-0.810666h-31.530667c-11.733333 0-27.050667 0.682667-34.048 1.536l-3.797333 3.2c-3.797333 3.157333-6.613333 9.685333-8.448 19.626666l-5.802667 28.074667a39.765333 39.765333 0 0 1-24.661333 27.178667L336.085333 307.370667c-11.221333 3.456-18.432-3.114667-16.042666-14.592l36.266666-174.890667 4.864-23.338667 1.152-4.010666c3.157333-10.837333 10.794667-32.938667 24.149334-47.488A58.453333 58.453333 0 0 1 396.8 34.133333C416.298667 20.650667 440.32 19.072 452.138667 19.242667l4.565333 0.085333c1.536 0.170667 12.373333 0.341333 24.106667 0.341333h236.501333l1.536 0.042667c41.045333 0.853333 72.405333 12.842667 94.037333 35.925333 22.4 23.936 28.416 59.392 18.090667 106.368l-44.074667 216.277334c-2.346667 11.477333-7.253333 30.037333-10.88 41.173333 0 0-10.112 31.018667-26.112 54.869333a272.938667 272.938667 0 0 1-51.754666 59.008l-130.048 114.474667z" fill="#A6A6A6" p-id="7454"></path></svg>