<?xml version="1.0" standalone="no"?><!DOCTYPE svg PUBLIC "-//W3C//DTD SVG 1.1//EN" "http://www.w3.org/Graphics/SVG/1.1/DTD/svg11.dtd"><svg t="1599489867329" class="icon" viewBox="0 0 1024 1024" version="1.1" xmlns="http://www.w3.org/2000/svg" p-id="7580" xmlns:xlink="http://www.w3.org/1999/xlink" width="200" height="200"><defs><style type="text/css"></style></defs><path d="M459.690667 196.949333a28.757333 28.757333 0 0 1-26.496-20.693333L399.146667 40.064c-2.858667-11.349333 4.394667-20.693333 16.128-20.693333h248.149333l26.88 0.042666 2.688 0.085334c40.106667 1.408 69.76 13.397333 89.088 35.797333 20.608 23.936 27.136 54.442667 19.541333 91.434667l-50.005333 240.725333c-2.389333 11.477333-7.210667 30.037333-10.752 41.258667 0 0-10.197333 32.469333-26.837333 48.725333-16.682667 16.256-46.122667 25.770667-88.32 28.458667 20.096 2.688 35.968 8.362667 47.573333 16.938666 11.562667 8.618667 20.138667 18.986667 25.728 31.146667 5.589333 12.245333 8.32 25.301333 8.192 39.296a214.570667 214.570667 0 0 1-3.925333 39.978667l-51.712 252.885333c-2.346667 11.477333-5.162667 24.448-6.229334 28.757333l-1.152 3.754667c-7.936 25.941333-21.717333 46.250667-41.344 60.842667-22.528 16.768-56.746667 25.088-102.869333 25.088h-263.253333a16.64 16.64 0 0 1-16.938667-20.864l30.464-145.237334a27.477333 27.477333 0 0 1 25.728-20.864H405.333333c11.733333 0 29.738667-0.512 39.978667-1.152l7.466667-2.261333c7.466667-2.261333 12.842667-10.581333 16.128-25.088l28.117333-133.589333c2.432-11.477333 5.504-30.421333 6.826667-42.069334 0 0 0.256-2.304-4.565334-11.349333-4.864-9.045333-14.976-13.568-30.336-13.568H356.138667c-11.733333 0-19.370667-9.386667-17.024-20.906667l27.562666-133.034666a27.434667 27.434667 0 0 1 25.642667-20.906667h95.573333c11.733333 0 29.909333-0.725333 40.362667-1.578667l8.32-3.157333c8.32-3.072 14.08-12.330667 17.237333-27.733333l26.197334-125.482667c2.389333-11.477333 5.973333-30.336 7.936-41.898667 0 0 0.170667-1.066667-2.645334-7.424s-11.904-9.472-27.264-9.472H459.690667z" fill="#A6A6A6" p-id="7581"></path></svg>