<?xml version="1.0" standalone="no"?><!DOCTYPE svg PUBLIC "-//W3C//DTD SVG 1.1//EN" "http://www.w3.org/Graphics/SVG/1.1/DTD/svg11.dtd"><svg t="1599489869876" class="icon" viewBox="0 0 1024 1024" version="1.1" xmlns="http://www.w3.org/2000/svg" p-id="7707" xmlns:xlink="http://www.w3.org/1999/xlink" width="200" height="200"><defs><style type="text/css"></style></defs><path d="M732.885333 776.661333a37.162667 37.162667 0 0 1-30.592 19.242667h-0.810666a27.477333 27.477333 0 0 0-25.728 20.864l-35.285334 166.954667a27.52 27.52 0 0 1-25.728 20.864H454.101333c-11.733333 0-19.328-9.386667-16.938666-20.864l35.285333-166.954667a16.64 16.64 0 0 0-16.938667-20.864H204.16a16.853333 16.853333 0 0 1-17.152-20.906667l33.109333-165.504a154.026667 154.026667 0 0 1 14.933334-39.338666L545.877333 37.802667a41.344 41.344 0 0 1 32.085334-18.432h242.048c11.733333 0 19.370667 9.386667 16.981333 20.906666l-122.069333 587.050667a16.682667 16.682667 0 0 0 16.981333 20.906667h41.429333c11.733333 0 17.152 8.661333 12.074667 19.242666l-52.522667 109.184z m-248.277333-128.426666a27.306667 27.306667 0 0 0 25.6-20.906667l64.554667-316.032c2.346667-11.477333-0.128-12.373333-5.504-1.92l-155.349334 302.208c-5.376 10.453333-10.624 22.954667-11.690666 27.776s7.637333 8.832 19.370666 8.832h63.018667z" fill="#A6A6A6" p-id="7708"></path></svg>