<?xml version="1.0" standalone="no"?><!DOCTYPE svg PUBLIC "-//W3C//DTD SVG 1.1//EN" "http://www.w3.org/Graphics/SVG/1.1/DTD/svg11.dtd"><svg t="1599489871973" class="icon" viewBox="0 0 1024 1024" version="1.1" xmlns="http://www.w3.org/2000/svg" p-id="7834" xmlns:xlink="http://www.w3.org/1999/xlink" width="200" height="200"><defs><style type="text/css"></style></defs><path d="M574.464 196.949333a27.434667 27.434667 0 0 0-25.685333 20.864l-37.12 177.749334a16.64 16.64 0 0 0 16.938666 20.906666h95.616l27.605334 0.085334 3.029333 0.170666c29.653333 1.749333 52.565333 12.074667 68.650667 30.890667 17.493333 20.778667 22.656 49.749333 14.848 86.741333l-78.378667 380.245334a287.829333 287.829333 0 0 1-12.288 40.661333s-7.594667 18.816-25.514667 31.018667-41.429333 18.304-70.314666 18.304H230.442667c-11.733333 0-17.024-8.576-11.776-19.072L293.12 836.693333a37.930667 37.930667 0 0 1 30.890667-19.072h95.36c11.733333 0 30.933333-0.554667 42.624-1.237333 0 0 6.144-0.341333 9.386666-3.541333 3.456-3.157333 6.826667-10.154667 10.538667-20.949334l33.706667-162.090666c2.389333-11.477333 4.309333-25.386667 4.266666-30.890667l-2.730666-2.944c-2.944-3.114667-7.893333-4.693333-14.848-4.693333H289.152a16.725333 16.725333 0 0 1-17.024-20.906667L381.525333 40.277333a27.434667 27.434667 0 0 1 25.642667-20.906666h382.805333a16.64 16.64 0 0 1 16.938667 20.864l-28.586667 135.808a27.52 27.52 0 0 1-25.728 20.864h-178.133333z" fill="#A6A6A6" p-id="7835"></path></svg>