<?xml version="1.0" standalone="no"?><!DOCTYPE svg PUBLIC "-//W3C//DTD SVG 1.1//EN" "http://www.w3.org/Graphics/SVG/1.1/DTD/svg11.dtd"><svg t="1599489874954" class="icon" viewBox="0 0 1024 1024" version="1.1" xmlns="http://www.w3.org/2000/svg" p-id="7961" xmlns:xlink="http://www.w3.org/1999/xlink" width="200" height="200"><defs><style type="text/css"></style></defs><path d="M710.613333 826.496c-2.346667 11.477333-5.248 25.258667-6.442666 30.592l-1.194667 4.693333c-11.306667 44.458667-29.269333 78.762667-54.229333 102.869334-27.434667 26.624-66.090667 39.978667-115.712 39.978666H360.618667l-29.354667-0.085333-3.882667-0.170667c-46.378667-2.304-81.109333-18.218667-104.149333-47.786666-24.96-32.085333-30.890667-77.013333-17.877333-134.869334L337.109333 182.613333c2.346667-11.52 4.992-24.234667 5.888-28.330666l0.896-3.626667c10.752-44.032 30.250667-76.501333 58.538667-97.365333 30.549333-22.613333 70.144-33.92 118.997333-33.92h290.346667c11.733333 0 16.896 8.490667 11.434667 18.901333l-73.002667 139.733333a38.784 38.784 0 0 1-31.232 18.901334h-132.224c-11.733333 0-30.506667 2.858667-41.685333 6.4 0 0-11.306667 3.541333-14.976 23.381333l-21.333334 105.130667c-2.346667 11.52 5.376 20.906667 17.109334 20.906666h106.453333l28.928 0.085334 3.669333 0.128c22.741333 0.896 42.026667 4.522667 57.856 10.922666 15.872 6.4 28.288 15.530667 37.290667 27.477334 19.328 25.770667 24.661333 64.853333 15.658667 117.248l-65.109334 317.909333z m-140.373333-287.488c2.346667-11.477333 5.248-25.258667 6.4-30.549333l0.170667-3.882667c0.213333-5.674667-0.896-9.984-3.285334-12.928-4.053333-4.949333-13.354667-7.424-27.776-7.424H498.048a27.392 27.392 0 0 0-25.642667 20.906667L413.44 791.253333c-2.389333 11.477333-4.906667 25.6-5.589333 31.402667l0.810666 3.797333a12.629333 12.629333 0 0 0 7.296 9.429334c7.125333 3.2 15.530667 4.736 25.557334 4.736h17.92c11.733333 0 25.898667-0.256 31.488-0.597334l3.925333-1.194666a20.992 20.992 0 0 0 11.562667-7.722667c4.309333-6.272 7.466667-14.464 9.344-24.362667l54.485333-267.733333z" fill="#A6A6A6" p-id="7962"></path></svg>