<?xml version="1.0" standalone="no"?><!DOCTYPE svg PUBLIC "-//W3C//DTD SVG 1.1//EN" "http://www.w3.org/Graphics/SVG/1.1/DTD/svg11.dtd"><svg t="1599489877822" class="icon" viewBox="0 0 1024 1024" version="1.1" xmlns="http://www.w3.org/2000/svg" p-id="8088" xmlns:xlink="http://www.w3.org/1999/xlink" width="200" height="200"><defs><style type="text/css"></style></defs><path d="M338.858667 137.856c2.389333-11.477333 7.893333-29.824 12.202666-40.704 0 0 14.208-35.968 36.650667-52.650667S444.501333 19.413333 490.496 19.413333h215.893333l28.928 0.085334 3.669334 0.170666c38.570667 1.92 67.754667 13.824 87.381333 35.669334 21.504 23.936 28.458667 54.442667 20.906667 91.434666L799.146667 377.984c-2.389333 11.477333-7.168 30.037333-10.666667 41.258667 0 0-10.026667 32.426667-26.24 48.725333-16.213333 16.256-45.397333 25.770667-87.594667 28.458667 20.010667 1.834667 35.797333 7.210667 47.530667 16.256 11.605333 9.045333 20.138667 19.626667 25.728 31.829333 5.589333 12.245333 8.405333 25.301333 8.192 39.296a218.282667 218.282667 0 0 1-3.882667 39.978667l-50.688 250.112c-2.346667 11.52-7.509333 29.952-11.477333 40.96 0 0-13.610667 37.76-33.962667 58.581333-20.352 20.778667-53.504 31.146667-99.626666 31.146667h-232.106667c-11.733333 0-26.538667-0.085333-32.938667-0.213334l-5.504-0.469333c-35.669333-3.029333-62.762667-15.872-81.194666-38.613333-21.248-26.197333-27.776-59.178667-19.456-98.901334l50.048-239.274666c2.389333-11.477333 7.210667-30.037333 10.709333-41.258667 0 0 10.282667-32.938667 26.837333-50.090667 16.469333-17.152 45.994667-26.624 88.277334-28.458666-20.096-2.773333-35.797333-8.362667-46.933334-16.981334-11.093333-8.533333-19.157333-18.688-24.277333-30.506666a91.733333 91.733333 0 0 1-7.466667-38.613334c0.085333-13.994667 1.92-27.306667 5.333334-39.978666l51.072-243.370667z m108.757333 702.762667c11.733333 0 29.738667-0.597333 39.978667-1.322667l7.381333-2.688c7.466667-2.773333 12.8-11.306667 16.042667-25.770667l38.698666-183.765333c2.432-11.477333 5.930667-30.336 7.808-41.941333 0 0 0.256-1.536-2.602666-8.789334-2.944-7.210667-12.074667-10.88-27.434667-10.88h-22.016c-11.733333 0-29.610667 0.725333-39.722667 1.578667l-6.997333 3.157333c-6.869333 3.2-11.904 12.458667-15.104 27.776l-38.698667 183.765334c-2.432 11.477333-5.674667 30.378667-7.296 42.026666 0 0-0.128 1.024 3.925334 7.296 4.181333 6.357333 13.952 9.472 29.397333 9.472h16.64zM585.386667 177.962667c-11.733333 0-29.525333 0.597333-39.509334 1.322666l-6.485333 2.688c-6.613333 2.773333-11.477333 11.349333-14.762667 25.770667l-35.029333 162.133333c-2.517333 11.434667-6.101333 30.293333-8.021333 41.898667 0 0-0.341333 2.005333 2.261333 10.112 2.474667 8.149333 11.434667 12.245333 26.752 12.245333h23.424c11.733333 0 29.482667-0.512 39.424-1.152l6.656-2.261333c6.528-2.261333 11.392-11.008 14.549333-26.410667l34.773334-167.466666c2.389333-11.477333 5.717333-30.378667 7.424-41.984 0 0 0.170667-1.066667-3.498667-7.338667-3.754667-6.357333-13.312-9.472-28.629333-9.472h-19.328z" fill="#A6A6A6" p-id="8089"></path></svg>