<?xml version="1.0" standalone="no"?><!DOCTYPE svg PUBLIC "-//W3C//DTD SVG 1.1//EN" "http://www.w3.org/Graphics/SVG/1.1/DTD/svg11.dtd"><svg t="1599489889020" class="icon" viewBox="0 0 1024 1024" version="1.1" xmlns="http://www.w3.org/2000/svg" p-id="8973" xmlns:xlink="http://www.w3.org/1999/xlink" width="200" height="200"><defs><style type="text/css"></style></defs><path d="M310.869333 175.829333l6.186667-30.037333 1.066667-4.352c10.624-43.434667 28.928-74.197333 54.826666-92.245333 28.586667-19.84 67.2-29.824 116.053334-29.824h176.512l30.037333 0.085333 4.224 0.170667c45.781333 2.005333 79.658667 14.805333 101.504 38.4 23.978667 25.770667 30.250667 67.072 18.986667 123.946666L680.832 856.32c-2.389333 11.477333-6.826667 30.165333-9.898667 41.472 0 0-6.613333 24.362667-15.488 41.045333a106.752 106.752 0 0 1-34.517333 39.296 140.373333 140.373333 0 0 1-51.072 20.309334 356.693333 356.693333 0 0 1-70.613333 6.101333H211.626667c-11.733333 0-16.682667-8.405333-11.008-18.645333L283.605333 836.266667a39.936 39.936 0 0 1 31.658667-18.645334h112.384c11.733333 0 30.208-0.810667 41.045333-1.834666l6.954667-3.626667c6.954667-3.584 11.989333-13.056 15.146667-28.458667l15.786666-71.296c2.517333-11.477333-4.992-20.821333-16.725333-20.821333H375.253333c-11.733333 0-26.922667-0.128-33.749333-0.256l-5.845333-0.469333c-39.082667-3.242667-67.029333-17.450667-83.712-42.624-19.285333-28.970667-23.808-67.754667-13.610667-116.565334l72.533333-355.84z m137.045334 325.461334l-5.845334 27.776 0.085334 2.901333a15.189333 15.189333 0 0 0 5.290666 11.861333 27.221333 27.221333 0 0 0 9.088 5.077334c3.370667 1.152 7.125333 1.706667 11.136 1.706666h51.882667c11.733333 0 23.296-9.386667 25.685333-20.864l64.768-310.570666c2.389333-11.477333 4.906667-24.192 5.546667-28.288v-3.029334c0-6.698667-2.005333-11.093333-6.016-13.312a34.346667 34.346667 0 0 0-9.344-3.413333 65.066667 65.066667 0 0 0-13.994667-1.365333h-16.725333c-11.733333 0-24.277333 0.128-27.861333 0.298666l-2.944 0.554667c-15.146667 3.029333-24.576 13.568-28.245334 31.744l-62.506666 298.922667z" fill="#A6A6A6" p-id="8974"></path></svg>